<mxfile host="app.diagrams.net" agent="Mozilla/5.0 (X11; Linux x86_64) AppleWebKit/537.36 (KHTML, like Gecko) Chrome/126.0.0.0 Safari/537.36" version="24.7.16">
  <diagram name="Page-1" id="QnEdKjKzNl2X6WufeY3l">
    <mxGraphModel dx="1962" dy="666" grid="1" gridSize="10" guides="1" tooltips="1" connect="1" arrows="1" fold="1" page="1" pageScale="1" pageWidth="827" pageHeight="1169" math="0" shadow="0">
      <root>
        <mxCell id="0" />
        <mxCell id="1" parent="0" />
        <mxCell id="8jvvT61suVUNRhjn4IaP-24" style="edgeStyle=orthogonalEdgeStyle;rounded=0;orthogonalLoop=1;jettySize=auto;html=1;" edge="1" parent="1" source="8jvvT61suVUNRhjn4IaP-1" target="8jvvT61suVUNRhjn4IaP-23">
          <mxGeometry relative="1" as="geometry" />
        </mxCell>
        <mxCell id="8jvvT61suVUNRhjn4IaP-35" value="ingest from MQ" style="edgeLabel;html=1;align=center;verticalAlign=middle;resizable=0;points=[];" vertex="1" connectable="0" parent="8jvvT61suVUNRhjn4IaP-24">
          <mxGeometry x="-0.3293" y="2" relative="1" as="geometry">
            <mxPoint x="14" y="-7" as="offset" />
          </mxGeometry>
        </mxCell>
        <mxCell id="8jvvT61suVUNRhjn4IaP-1" value="Kafka :9092" style="sketch=0;points=[[0,0,0],[0.25,0,0],[0.5,0,0],[0.75,0,0],[1,0,0],[0,1,0],[0.25,1,0],[0.5,1,0],[0.75,1,0],[1,1,0],[0,0.25,0],[0,0.5,0],[0,0.75,0],[1,0.25,0],[1,0.5,0],[1,0.75,0]];outlineConnect=0;fontColor=#232F3E;fillColor=#8C4FFF;strokeColor=#ffffff;dashed=0;verticalLabelPosition=bottom;verticalAlign=top;align=center;html=1;fontSize=12;fontStyle=0;aspect=fixed;shape=mxgraph.aws4.resourceIcon;resIcon=mxgraph.aws4.managed_streaming_for_kafka;" vertex="1" parent="1">
          <mxGeometry x="370" y="370" width="78" height="78" as="geometry" />
        </mxCell>
        <mxCell id="8jvvT61suVUNRhjn4IaP-8" value="" style="edgeStyle=orthogonalEdgeStyle;rounded=0;orthogonalLoop=1;jettySize=auto;html=1;entryX=0;entryY=0.5;entryDx=0;entryDy=0;entryPerimeter=0;" edge="1" parent="1" source="8jvvT61suVUNRhjn4IaP-3" target="8jvvT61suVUNRhjn4IaP-1">
          <mxGeometry relative="1" as="geometry">
            <mxPoint x="360" y="410" as="targetPoint" />
          </mxGeometry>
        </mxCell>
        <mxCell id="8jvvT61suVUNRhjn4IaP-18" value="/batch&lt;div&gt;tx hashes&lt;/div&gt;" style="edgeLabel;html=1;align=center;verticalAlign=middle;resizable=0;points=[];" vertex="1" connectable="0" parent="8jvvT61suVUNRhjn4IaP-8">
          <mxGeometry x="-0.175" y="-2" relative="1" as="geometry">
            <mxPoint x="9" y="-21" as="offset" />
          </mxGeometry>
        </mxCell>
        <mxCell id="8jvvT61suVUNRhjn4IaP-3" value="web :7878" style="outlineConnect=0;dashed=0;verticalLabelPosition=bottom;verticalAlign=top;align=center;html=1;shape=mxgraph.aws3.ec2;fillColor=#F58534;gradientColor=none;" vertex="1" parent="1">
          <mxGeometry x="160" y="362.5" width="76.5" height="93" as="geometry" />
        </mxCell>
        <mxCell id="8jvvT61suVUNRhjn4IaP-12" value="listener" style="outlineConnect=0;dashed=0;verticalLabelPosition=bottom;verticalAlign=top;align=center;html=1;shape=mxgraph.aws3.ec2;fillColor=#F58534;gradientColor=none;" vertex="1" parent="1">
          <mxGeometry x="160" y="510" width="76.5" height="93" as="geometry" />
        </mxCell>
        <mxCell id="8jvvT61suVUNRhjn4IaP-15" style="edgeStyle=orthogonalEdgeStyle;rounded=0;orthogonalLoop=1;jettySize=auto;html=1;" edge="1" parent="1" source="8jvvT61suVUNRhjn4IaP-13" target="8jvvT61suVUNRhjn4IaP-12">
          <mxGeometry relative="1" as="geometry" />
        </mxCell>
        <mxCell id="8jvvT61suVUNRhjn4IaP-16" value="websocket" style="edgeLabel;html=1;align=center;verticalAlign=middle;resizable=0;points=[];" vertex="1" connectable="0" parent="8jvvT61suVUNRhjn4IaP-15">
          <mxGeometry x="-0.1224" relative="1" as="geometry">
            <mxPoint y="-16" as="offset" />
          </mxGeometry>
        </mxCell>
        <mxCell id="8jvvT61suVUNRhjn4IaP-13" value="Blockchain" style="ellipse;shape=cloud;whiteSpace=wrap;html=1;" vertex="1" parent="1">
          <mxGeometry x="-30" y="516.5" width="120" height="80" as="geometry" />
        </mxCell>
        <mxCell id="8jvvT61suVUNRhjn4IaP-17" style="edgeStyle=orthogonalEdgeStyle;rounded=0;orthogonalLoop=1;jettySize=auto;html=1;exitX=1;exitY=0.5;exitDx=0;exitDy=0;exitPerimeter=0;entryX=0;entryY=0.75;entryDx=0;entryDy=0;entryPerimeter=0;" edge="1" parent="1" source="8jvvT61suVUNRhjn4IaP-12" target="8jvvT61suVUNRhjn4IaP-1">
          <mxGeometry relative="1" as="geometry" />
        </mxCell>
        <mxCell id="8jvvT61suVUNRhjn4IaP-22" value="tx hashes" style="text;html=1;align=center;verticalAlign=middle;resizable=0;points=[];autosize=1;strokeColor=none;fillColor=none;" vertex="1" parent="1">
          <mxGeometry x="300" y="500" width="70" height="30" as="geometry" />
        </mxCell>
        <mxCell id="8jvvT61suVUNRhjn4IaP-23" value="process&lt;div&gt;calculates gas fee in USD&lt;/div&gt;" style="outlineConnect=0;dashed=0;verticalLabelPosition=bottom;verticalAlign=top;align=center;html=1;shape=mxgraph.aws3.ec2;fillColor=#F58534;gradientColor=none;" vertex="1" parent="1">
          <mxGeometry x="530" y="362.5" width="76.5" height="93" as="geometry" />
        </mxCell>
        <mxCell id="8jvvT61suVUNRhjn4IaP-25" value="redis&lt;div&gt;key: tx hash&lt;/div&gt;&lt;div&gt;value: gas fee in USD&lt;/div&gt;" style="image;sketch=0;aspect=fixed;html=1;points=[];align=center;fontSize=12;image=img/lib/mscae/Cache_Redis_Product.svg;" vertex="1" parent="1">
          <mxGeometry x="680" y="388" width="50" height="42" as="geometry" />
        </mxCell>
        <mxCell id="8jvvT61suVUNRhjn4IaP-26" style="edgeStyle=orthogonalEdgeStyle;rounded=0;orthogonalLoop=1;jettySize=auto;html=1;entryX=-0.054;entryY=0.507;entryDx=0;entryDy=0;entryPerimeter=0;" edge="1" parent="1" source="8jvvT61suVUNRhjn4IaP-23" target="8jvvT61suVUNRhjn4IaP-25">
          <mxGeometry relative="1" as="geometry" />
        </mxCell>
        <mxCell id="8jvvT61suVUNRhjn4IaP-36" value="save to cache" style="edgeLabel;html=1;align=center;verticalAlign=middle;resizable=0;points=[];" vertex="1" connectable="0" parent="8jvvT61suVUNRhjn4IaP-26">
          <mxGeometry x="-0.3721" y="3" relative="1" as="geometry">
            <mxPoint x="12" y="-6" as="offset" />
          </mxGeometry>
        </mxCell>
        <mxCell id="8jvvT61suVUNRhjn4IaP-28" style="edgeStyle=orthogonalEdgeStyle;rounded=0;orthogonalLoop=1;jettySize=auto;html=1;entryX=0.443;entryY=-0.016;entryDx=0;entryDy=0;entryPerimeter=0;" edge="1" parent="1" source="8jvvT61suVUNRhjn4IaP-3" target="8jvvT61suVUNRhjn4IaP-25">
          <mxGeometry relative="1" as="geometry">
            <Array as="points">
              <mxPoint x="200" y="343" />
              <mxPoint x="702" y="343" />
            </Array>
          </mxGeometry>
        </mxCell>
        <mxCell id="8jvvT61suVUNRhjn4IaP-29" value="/tx&lt;div&gt;1. first check cache&lt;/div&gt;&lt;div&gt;/tx&lt;/div&gt;&lt;div&gt;3. save result to cache&lt;/div&gt;" style="text;html=1;align=center;verticalAlign=middle;resizable=0;points=[];autosize=1;strokeColor=none;fillColor=none;" vertex="1" parent="1">
          <mxGeometry x="400" y="270" width="130" height="70" as="geometry" />
        </mxCell>
        <mxCell id="8jvvT61suVUNRhjn4IaP-30" style="edgeStyle=orthogonalEdgeStyle;rounded=0;orthogonalLoop=1;jettySize=auto;html=1;entryX=0.511;entryY=0.063;entryDx=0;entryDy=0;entryPerimeter=0;" edge="1" parent="1" source="8jvvT61suVUNRhjn4IaP-3" target="8jvvT61suVUNRhjn4IaP-13">
          <mxGeometry relative="1" as="geometry" />
        </mxCell>
        <mxCell id="8jvvT61suVUNRhjn4IaP-31" value="/tx&lt;div&gt;2a. then query gas fee in ETH&lt;/div&gt;" style="text;html=1;align=center;verticalAlign=middle;resizable=0;points=[];autosize=1;strokeColor=none;fillColor=none;" vertex="1" parent="1">
          <mxGeometry x="-10" y="370" width="170" height="40" as="geometry" />
        </mxCell>
        <mxCell id="8jvvT61suVUNRhjn4IaP-32" value="Binance" style="ellipse;shape=cloud;whiteSpace=wrap;html=1;" vertex="1" parent="1">
          <mxGeometry x="138.25" y="190" width="120" height="80" as="geometry" />
        </mxCell>
        <mxCell id="8jvvT61suVUNRhjn4IaP-33" style="edgeStyle=orthogonalEdgeStyle;rounded=0;orthogonalLoop=1;jettySize=auto;html=1;entryX=0.498;entryY=0.977;entryDx=0;entryDy=0;entryPerimeter=0;" edge="1" parent="1" source="8jvvT61suVUNRhjn4IaP-3" target="8jvvT61suVUNRhjn4IaP-32">
          <mxGeometry relative="1" as="geometry" />
        </mxCell>
        <mxCell id="8jvvT61suVUNRhjn4IaP-34" value="/tx&lt;div&gt;2b. then query ETH price in USDT&lt;/div&gt;" style="text;html=1;align=center;verticalAlign=middle;resizable=0;points=[];autosize=1;strokeColor=none;fillColor=none;" vertex="1" parent="1">
          <mxGeometry x="10" y="280" width="190" height="40" as="geometry" />
        </mxCell>
      </root>
    </mxGraphModel>
  </diagram>
</mxfile>
